<?xml version="1.0" encoding="UTF-8"?> <svg xmlns="http://www.w3.org/2000/svg" width="121" height="121" viewBox="0 0 121 121" fill="none"><path d="M82.4518 35.2C82.4518 23 72.5518 13 60.2518 13C47.9518 13 38.0518 22.9 38.0518 35.2C38.0518 46.7 46.8518 56.2 58.1518 57.3V105.8C58.1518 107.1 59.1518 108.1 60.4518 108.1C61.7518 108.1 62.7518 107.1 62.7518 105.8V57.2C73.7518 56 82.4518 46.6 82.4518 35.2ZM51.6518 40.1H55.5518C55.5518 41.8 56.8518 43.1 58.5518 43.1H62.0518C63.7518 43.1 65.0518 41.8 65.0518 40.1C65.0518 38.4 63.7518 37.1 62.0518 37.1H58.5518C54.7518 37.1 51.6518 34 51.6518 30.2C51.6518 26.5 54.6518 23.5 58.3518 23.4V19.3H62.2518V23.4C65.9518 23.5 68.9518 26.5 68.9518 30.2H65.0518C65.0518 28.5 63.7518 27.2 62.0518 27.2H58.5518C56.8518 27.2 55.5518 28.5 55.5518 30.2C55.5518 31.9 56.8518 33.2 58.5518 33.2H62.0518C65.8518 33.2 68.9518 36.3 68.9518 40.1C68.9518 43.8 65.9518 46.8 62.2518 46.9V51H58.3518V46.9C54.6518 46.8 51.6518 43.8 51.6518 40.1Z" fill="white"></path><path d="M27.1519 60.0002C26.1519 60.1002 25.3519 60.9002 25.2519 61.9002C25.1519 62.5002 23.3519 76.1002 31.0519 83.7002C36.1519 88.8002 44.0519 89.7002 48.8519 89.7002C50.0519 89.7002 51.0519 89.6002 51.7519 89.6002L38.3519 76.3002C37.4519 75.4002 37.4519 74.0002 38.3519 73.1002C39.2519 72.2002 40.6519 72.2002 41.5519 73.1002L54.8519 86.4002C55.1519 82.9002 55.4519 72.2002 48.9519 65.7002C41.3519 58.1002 27.7519 59.9002 27.1519 60.0002Z" fill="white"></path><path d="M95.4521 61.8999C95.3521 60.8999 94.5521 60.0999 93.5521 59.9999C92.9521 59.8999 79.3521 58.1999 71.7521 65.7999C65.2521 72.2999 65.5521 82.9999 65.8521 86.4999L79.1521 73.1999C80.0521 72.2999 81.4521 72.2999 82.3521 73.1999C83.2521 74.0999 83.2521 75.4999 82.3521 76.3999L69.0521 89.5999C69.7521 89.6999 70.7521 89.6999 71.9521 89.6999C76.7521 89.6999 84.5521 88.7999 89.7521 83.6999C97.3521 76.0999 95.5521 62.4999 95.4521 61.8999Z" fill="white"></path></svg> 