<?xml version="1.0" encoding="UTF-8"?> <svg xmlns="http://www.w3.org/2000/svg" width="121" height="121" viewBox="0 0 121 121" fill="none"><path d="M36.3559 66.95C35.3559 64.45 35.8559 61.55 37.8559 59.65L49.1559 48.35L35.4559 34.75C34.4559 33.75 32.7559 33.75 31.7559 34.75L13.7559 52.65C12.1559 54.35 13.2559 57.15 15.5559 57.15H17.7559V74.85C17.7559 75.95 18.6559 76.85 19.7559 76.85H40.5559V70.75C38.8559 70.25 37.1559 68.85 36.3559 66.95Z" fill="white"></path><path d="M107.256 52.65L89.3561 34.75C88.3561 33.75 86.6561 33.75 85.6561 34.75L71.9561 48.35L83.2561 59.65C85.156 61.55 85.7561 64.45 84.7561 66.95C83.956 68.85 82.3561 70.25 80.4561 70.85V76.95H101.256C102.356 76.95 103.256 76.05 103.256 74.95V57.15H105.456C107.756 57.15 108.956 54.35 107.256 52.65Z" fill="white"></path><path d="M80.3559 62.5498L62.3559 44.5498C61.3559 43.5498 59.6559 43.5498 58.6559 44.5498L40.7559 62.5498C39.1559 64.1498 40.2559 67.0498 42.5559 67.0498H44.7559V84.7498C44.7559 85.8498 45.6559 86.7498 46.7559 86.7498H74.1559C75.2559 86.7498 76.1559 85.8498 76.1559 84.7498V66.9498H78.3559C80.8559 66.9498 81.9559 64.1498 80.3559 62.5498ZM59.3559 67.3498H61.7559C64.3559 67.3498 66.4559 69.4498 66.4559 72.0498C66.4559 74.5498 64.4559 76.6498 61.8559 76.7498V79.1498H59.2559V76.7498C56.7559 76.6498 54.6559 74.6498 54.6559 72.0498H57.2559C57.2559 73.2498 58.1559 74.1498 59.3559 74.1498H61.7559C62.9559 74.1498 63.8559 73.2498 63.8559 72.0498C63.8559 70.8498 62.9559 69.9498 61.7559 69.9498H59.3559C56.7559 69.9498 54.6559 67.8498 54.6559 65.2498C54.6559 62.7498 56.6559 60.6498 59.2559 60.6498V58.2498H61.8559V60.6498C64.3559 60.7498 66.4559 62.7498 66.4559 65.2498H63.8559C63.8559 64.0498 62.9559 63.1498 61.7559 63.1498H59.3559C58.1559 63.1498 57.2559 64.0498 57.2559 65.2498C57.2559 66.4498 58.2559 67.3498 59.3559 67.3498Z" fill="white"></path></svg> 