<?xml version="1.0" encoding="UTF-8"?> <svg xmlns="http://www.w3.org/2000/svg" width="121" height="121" viewBox="0 0 121 121" fill="none"><path d="M13.3359 74.6992V79.4338C13.3359 84.6565 17.5824 88.8984 22.8005 88.8984H52.8982L51.5183 98.363H41.7342C40.4252 98.363 39.3692 99.4235 39.3692 100.728C39.3692 102.033 40.4252 103.093 41.7342 103.093H79.5971C80.9061 103.093 81.9621 102.033 81.9621 100.728C81.9621 99.4235 80.9061 98.363 79.5971 98.363H69.813L68.4331 88.8984H98.5308C103.753 88.8984 107.995 84.6519 107.995 79.4338V74.6992H13.3359ZM56.306 98.363L57.686 88.8984H63.6541L65.034 98.363H56.306ZM65.4024 84.1638H55.9378C54.6288 84.1638 53.5728 83.1033 53.5728 81.7988C53.5728 80.4943 54.6288 79.4338 55.9378 79.4338H65.4024C66.7113 79.4338 67.7674 80.4943 67.7674 81.7988C67.7674 83.1033 66.7113 84.1638 65.4024 84.1638Z" fill="#012228"></path><path d="M108 69.965V27.3674C108 22.1448 103.754 17.9028 98.5354 17.9028H22.8049C17.5822 17.9028 13.3403 22.1493 13.3403 27.3674V69.965H108ZM82.0871 29.5689C81.3239 28.5084 81.5635 27.0307 82.624 26.2631C83.6845 25.4999 85.1621 25.7395 85.9298 26.8C89.5284 31.7963 91.4364 37.7201 91.4364 43.9367C91.4364 50.1533 89.5328 56.0776 85.9298 61.0734C85.4683 61.7168 84.7406 62.054 84.0084 62.054C83.5292 62.054 83.0456 61.9076 82.6285 61.6059C81.568 60.8426 81.3284 59.3606 82.0916 58.3001C85.1089 54.1157 86.7019 49.146 86.7019 43.9328C86.7019 38.7191 85.109 33.7493 82.0916 29.5655L82.0871 29.5689ZM72.3739 34.8403C71.6063 33.7842 71.8414 32.3022 72.9019 31.5345C73.9624 30.7669 75.4401 31.0065 76.2077 32.0625C78.7103 35.5147 80.0282 39.6191 80.0282 43.9319C80.0282 48.2449 78.7059 52.3494 76.2077 55.8013C75.7463 56.4402 75.023 56.7819 74.2864 56.7819C73.8072 56.7819 73.3191 56.6355 72.8975 56.3337C71.8414 55.5661 71.6019 54.0885 72.3695 53.0279C74.2819 50.3878 75.2892 47.2463 75.2892 43.9316C75.2892 40.6214 74.2775 37.4798 72.3695 34.8353L72.3739 34.8403ZM60.6681 34.4676C65.8908 34.4676 70.1327 38.714 70.1327 43.9322C70.1327 49.1549 65.8863 53.3968 60.6681 53.3968C55.4454 53.3968 51.2035 49.1503 51.2035 43.9322C51.2035 38.7095 55.45 34.4676 60.6681 34.4676ZM45.1285 32.0626C45.8917 31.0065 47.3694 30.7669 48.4343 31.5345C49.4904 32.3022 49.73 33.7798 48.9624 34.8403C47.0499 37.4805 46.0427 40.622 46.0427 43.9367C46.0427 47.2469 47.0544 50.3884 48.9624 53.033C49.73 54.0891 49.4948 55.5711 48.4343 56.3388C48.0128 56.6405 47.5291 56.787 47.0454 56.787C46.3133 56.787 45.5901 56.4453 45.1241 55.8063C42.6215 52.3541 41.3036 48.2498 41.3036 43.937C41.3036 39.6242 42.626 35.5195 45.1241 32.0676L45.1285 32.0626ZM35.4065 26.8C36.1697 25.7395 37.6474 25.4999 38.7123 26.2631C39.7728 27.0263 40.0124 28.5084 39.2492 29.5689C36.232 33.7532 34.6389 38.7229 34.6389 43.9362C34.6389 49.1499 36.2319 54.1196 39.2492 58.3035C40.0124 59.364 39.7728 60.8416 38.7123 61.6093C38.2952 61.911 37.8071 62.0574 37.3324 62.0574C36.5958 62.0574 35.8725 61.7158 35.4111 61.0768C31.8124 56.0805 29.9044 50.1567 29.9044 43.9401C29.9044 37.7235 31.808 31.7992 35.4111 26.8034L35.4065 26.8Z" fill="#012228"></path><path d="M65.4026 43.9358C65.4026 50.2456 55.9336 50.2456 55.9336 43.9358C55.9336 37.6216 65.4026 37.6216 65.4026 43.9358Z" fill="#012228"></path></svg> 