<?xml version="1.0" encoding="UTF-8"?> <svg xmlns="http://www.w3.org/2000/svg" width="121" height="121" viewBox="0 0 121 121" fill="none"><path d="M100.904 32.0994H20.4322C16.5183 32.0994 13.332 28.9131 13.332 24.9991C13.332 21.0852 16.5183 17.8989 20.4322 17.8989H100.9C104.814 17.8989 108 21.0852 108 24.9991C108 28.9131 104.814 32.0994 100.9 32.0994H100.904Z" fill="#012228"></path><path d="M100.904 36.8345H20.4321C19.1231 36.8345 18.0669 37.8951 18.0669 39.1997V77.066C18.0669 82.2891 22.3137 86.5314 27.5323 86.5314H58.2757V89.3405C55.5376 90.3257 53.5674 92.9216 53.5674 95.997C53.5674 99.911 56.7536 103.097 60.6676 103.097C64.5816 103.097 67.7678 99.911 67.7678 95.997C67.7678 92.9039 65.7709 90.2991 63.0107 89.3272V86.5315H93.8029C99.026 86.5315 103.268 82.2847 103.268 77.0661V39.1998C103.268 37.8952 102.212 36.8346 100.903 36.8346L100.904 36.8345ZM63.0334 96.0014C63.0334 97.306 61.9728 98.3666 60.6682 98.3666C59.3635 98.3666 58.303 97.306 58.303 96.0014C58.303 94.6968 59.3635 93.6362 60.6682 93.6362C61.9728 93.6362 63.0334 94.6968 63.0334 96.0014ZM84.4045 60.1675C84.4045 61.4721 83.3483 62.5327 82.0392 62.5327C80.7302 62.5327 79.674 61.4721 79.674 60.1675V59.0448L67.08 71.6388C66.6184 72.1003 66.0105 72.3311 65.4069 72.3311C64.799 72.3311 64.1954 72.1003 63.7339 71.6388L52.6664 60.5714L41.08 71.6743C40.1348 72.5751 38.6393 72.5485 37.734 71.6033C36.8287 70.6581 36.8598 69.1626 37.8006 68.2573L51.0604 55.5519C51.9967 54.6599 53.4612 54.6733 54.3709 55.5874L65.4028 66.6193L76.6611 55.361H74.8728C73.5637 55.361 72.5076 54.3004 72.5076 52.9958C72.5076 51.6912 73.5637 50.6306 74.8728 50.6306H82.0396C83.3486 50.6306 84.4048 51.6911 84.4048 52.9958L84.4045 60.1675Z" fill="#012228"></path></svg> 