<?xml version="1.0" encoding="UTF-8"?> <svg xmlns="http://www.w3.org/2000/svg" width="121" height="121" viewBox="0 0 121 121" fill="none"><path d="M104.2 88.6001H73.3002C71.1002 96.6001 66.0002 103.4 59.2002 107.8C59.5002 107.9 59.8002 108 60.1002 108H104.2C106.1 108 107.6 106.5 107.6 104.6V92.0001C107.6 90.1001 106.1 88.6001 104.2 88.6001Z" fill="white"></path><path d="M104.2 63.3999H70C72.8 68.2999 74.4 73.8999 74.4 79.8999C74.4 80.8999 74.3 81.8999 74.2 82.7999H104.1C106 82.7999 107.5 81.2999 107.5 79.3999V66.7999C107.6 64.8999 106.1 63.3999 104.2 63.3999Z" fill="white"></path><path d="M104.2 38.2002H60.1002C58.2002 38.2002 56.7002 39.7002 56.7002 41.6002V50.5002C60.2002 52.3002 63.3002 54.8002 65.8002 57.7002H104.2C106.1 57.7002 107.6 56.2002 107.6 54.3002V41.6002C107.6 39.7002 106.1 38.2002 104.2 38.2002Z" fill="white"></path><path d="M60.1002 32.4H104.2C106.1 32.4 107.6 30.9 107.6 29V16.4C107.6 14.5 106.1 13 104.2 13H60.1002C58.2002 13 56.7002 14.5 56.7002 16.4V29C56.7002 30.9 58.2002 32.4 60.1002 32.4Z" fill="white"></path><path d="M69.2 79.8998C69.2 64.3998 56.6 51.7998 41.1 51.7998C25.6 51.7998 13 64.3998 13 79.8998C13 95.3998 25.6 108 41.1 108C56.6 108 69.2 95.3998 69.2 79.8998ZM38.9 77.4998H43.3C48.1 77.4998 52 81.3998 52 86.1998C52 90.9998 48.1 94.8998 43.4 94.8998V100.5H38.7V94.9998C33.9 94.8998 30.1 91.0998 30.1 86.2998H34.8C34.8 88.4998 36.6 90.3998 38.9 90.3998H43.3C45.5 90.3998 47.4 88.5998 47.4 86.2998C47.4 83.9998 45.6 82.1998 43.3 82.1998H38.8C34 82.1998 30.1 78.2998 30.1 73.4998C30.1 68.6998 34 64.7998 38.7 64.7998V59.2998H43.4V64.7998C48.2 64.8998 52 68.6998 52 73.4998H47.3C47.3 71.2998 45.5 69.3998 43.2 69.3998H38.7C36.5 69.3998 34.6 71.1998 34.6 73.4998C34.6 75.7998 36.6 77.4998 38.9 77.4998Z" fill="white"></path></svg> 