<?xml version="1.0" encoding="UTF-8"?> <svg xmlns="http://www.w3.org/2000/svg" width="121" height="121" viewBox="0 0 121 121" fill="none"><path d="M70.0746 78.1162C72.3376 75.7645 73.7354 72.5786 73.7354 69.0688C73.7354 61.8583 67.8694 55.9966 60.6632 55.9966C53.4527 55.9966 47.5909 61.8626 47.5909 69.0688C47.5909 72.5786 48.9887 75.7645 51.2517 78.1162C46.6414 79.7358 43.3091 84.0842 43.3091 89.2403V96.0026C43.3091 99.9162 46.495 103.102 50.4086 103.102H70.9177C74.8313 103.102 78.0172 99.9162 78.0172 96.0026V89.2403C78.0172 84.0842 74.6849 79.7358 70.0746 78.1162Z" fill="#012228"></path><path d="M93.6538 30.9755C93.6538 23.765 87.7878 17.9033 80.5816 17.9033C73.3754 17.9033 67.5094 23.7693 67.5094 30.9755C67.5094 34.4853 68.9072 37.6712 71.1701 40.0229C66.5599 41.6425 63.2275 45.991 63.2275 51.147V51.4665C66.9593 52.0079 70.3093 53.6984 72.9229 56.1832C73.7926 47.3044 81.216 40.3291 90.2809 40.1519C90.1833 40.112 90.0946 40.0632 89.997 40.0277C92.2599 37.676 93.6577 34.49 93.6577 30.9803L93.6538 30.9755Z" fill="#012228"></path><path d="M48.4033 56.1822C51.0124 53.7018 54.3669 52.0068 58.0987 51.4655V51.1461C58.0987 45.99 54.7663 41.6416 50.1561 40.022C52.419 37.6703 53.8168 34.4843 53.8168 30.9746C53.8168 23.7641 47.9508 17.9023 40.7446 17.9023C33.5341 17.9023 27.6724 23.7684 27.6724 30.9746C27.6724 34.4843 29.0701 37.6703 31.3331 40.022C31.2355 40.0575 31.1467 40.1107 31.0491 40.1462C40.1099 40.3281 47.5337 47.3034 48.4072 56.1775L48.4033 56.1822Z" fill="#012228"></path><path d="M100.053 66.9834C102.316 64.6317 103.714 61.4458 103.714 57.936C103.714 50.7299 97.8476 44.8638 90.6414 44.8638C83.4309 44.8638 77.5692 50.7298 77.5692 57.936C77.5692 61.4458 78.967 64.6317 81.23 66.9834C80.2272 67.3339 79.2998 67.8398 78.439 68.4299C78.4479 68.6429 78.4701 68.847 78.4701 69.0644C78.4701 71.6956 77.8932 74.2515 76.8062 76.5766C80.4979 79.6604 82.7565 84.2662 82.7565 89.2365V91.9653H100.901C104.814 91.9653 108 88.7794 108 84.8658V78.1035C108 72.9474 104.668 68.599 100.057 66.9794L100.053 66.9834Z" fill="#012228"></path><path d="M38.5755 89.2355C38.5755 84.2658 40.834 79.6644 44.5258 76.5756C43.4342 74.2461 42.8619 71.6902 42.8619 69.0634C42.8619 68.8504 42.8841 68.6419 42.8929 68.4289C42.0321 67.8388 41.1048 67.3373 40.102 66.9824C42.365 64.6307 43.7627 61.4448 43.7627 57.935C43.7627 50.7289 37.8967 44.8628 30.6905 44.8628C23.4843 44.8628 17.6183 50.7288 17.6183 57.935C17.6183 61.4448 19.016 64.6307 21.279 66.9824C16.6688 68.602 13.3364 72.9504 13.3364 78.1065V84.8688C13.3364 88.7824 16.5224 91.9683 20.436 91.9683H38.5801V89.2395L38.5755 89.2355Z" fill="#012228"></path></svg> 