<?xml version="1.0" encoding="UTF-8"?> <svg xmlns="http://www.w3.org/2000/svg" width="121" height="121" viewBox="0 0 121 121" fill="none"><path fill-rule="evenodd" clip-rule="evenodd" d="M39.7644 87.2773C39.765 87.4292 39.7357 87.5798 39.6779 87.7203C39.6202 87.8607 39.5352 87.9884 39.4279 88.0958C39.3206 88.2032 39.1931 88.2883 39.0527 88.3461C38.9124 88.4039 38.762 88.4334 38.6102 88.4327H19.7518C19.6002 88.4327 19.4501 88.4028 19.3101 88.3447C19.1701 88.2867 19.0428 88.2015 18.9357 88.0943C18.8285 87.987 18.7435 87.8596 18.6855 87.7194C18.6275 87.5793 18.5976 87.429 18.5976 87.2773C18.5976 87.1256 18.6275 86.9753 18.6855 86.8352C18.7435 86.695 18.8285 86.5676 18.9357 86.4603C19.0428 86.353 19.1701 86.2679 19.3101 86.2099C19.4501 86.1518 19.6002 86.1219 19.7518 86.1219H38.6102C38.9151 86.123 39.2072 86.2444 39.4233 86.4597C39.6393 86.675 39.7619 86.9669 39.7644 87.2721V87.2773ZM39.7644 82.0494C39.7644 82.2008 39.7345 82.3508 39.6764 82.4907C39.6183 82.6306 39.5332 82.7576 39.426 82.8645C39.3188 82.9714 39.1915 83.056 39.0515 83.1135C38.9115 83.1709 38.7616 83.2002 38.6102 83.1995H19.7518C19.4457 83.1995 19.1521 83.0778 18.9357 82.8611C18.7192 82.6444 18.5976 82.3506 18.5976 82.0441C18.5976 81.7377 18.7192 81.4438 18.9357 81.2271C19.1521 81.0105 19.4457 80.8887 19.7518 80.8887H38.6102C38.762 80.8881 38.9124 80.9175 39.0527 80.9753C39.1931 81.0331 39.3206 81.1182 39.4279 81.2256C39.5352 81.333 39.6202 81.4607 39.6779 81.6012C39.7357 81.7417 39.765 81.8922 39.7644 82.0441V82.0494ZM18.5956 76.8131C18.5983 76.5078 18.7211 76.2159 18.9373 76.0006C19.1535 75.7853 19.4458 75.664 19.7507 75.6629H33.0632C33.3693 75.6629 33.6628 75.7846 33.8793 76.0013C34.0957 76.218 34.2173 76.5119 34.2173 76.8183C34.2173 77.1247 34.0957 77.4186 33.8793 77.6353C33.6628 77.8519 33.3693 77.9737 33.0632 77.9737H19.7518C19.5994 77.9746 19.4483 77.9453 19.3074 77.8872C19.1665 77.8292 19.0385 77.7437 18.9309 77.6357C18.8233 77.5277 18.7383 77.3993 18.6807 77.2581C18.6231 77.1169 18.5942 76.9656 18.5956 76.8131ZM34.7009 67.9768C32.763 69.1054 30.4792 69.484 28.2814 69.041C26.0836 68.5981 24.124 67.3643 22.7733 65.573L30.1147 61.3321L37.6159 65.3105C36.8532 66.4054 35.8563 67.3162 34.6978 67.9768H34.7009ZM21.2276 57.6432C20.693 59.6057 20.8328 61.6911 21.6244 63.5644L28.9732 59.3235L29.2865 50.8417C27.9546 50.9709 26.6657 51.3841 25.5066 52.0535C24.4566 52.6533 23.5369 53.4571 22.8015 54.4178C22.0661 55.3784 21.5299 56.4764 21.2244 57.6474L21.2276 57.6432ZM38.0703 55.4109C37.3912 54.231 36.4574 53.2178 35.337 52.4455C34.2167 51.6732 32.9381 51.1614 31.5947 50.9473L31.2814 59.3371L38.6969 63.2633C39.1784 61.989 39.3712 60.6236 39.2614 59.2656C39.1515 57.9077 38.7419 56.5911 38.0619 55.4109H38.0703ZM24.3525 50.0282C22.3811 51.1678 20.7913 52.867 19.7843 54.9109C18.7772 56.9548 18.3981 59.2517 18.6947 61.5113C18.9914 63.7709 19.9506 65.8917 21.451 67.6057C22.9515 69.3197 24.9258 70.5499 27.1245 71.1407C28.1029 71.4011 29.1108 71.5336 30.1231 71.5349C31.8875 71.5316 33.6275 71.1223 35.2087 70.3386C36.7899 69.5549 38.17 68.4178 39.2424 67.0152C40.3147 65.6125 41.0506 63.9818 41.3932 62.2491C41.7358 60.5164 41.676 58.7281 41.2183 57.0222C40.7606 55.3163 39.9173 53.7387 38.7535 52.411C37.5898 51.0834 36.1368 50.0413 34.5067 49.3653C32.8766 48.6894 31.1131 48.3976 29.3525 48.5125C27.5918 48.6275 25.8811 49.1461 24.3525 50.0282ZM92.8409 55.8574C92.3605 55.8574 91.8909 55.7146 91.4916 55.4471C91.0923 55.1796 90.7813 54.7994 90.5981 54.3548C90.4149 53.9102 90.3676 53.4211 90.4623 52.9496C90.5571 52.4781 90.7895 52.0453 91.1302 51.7062C91.4708 51.367 91.9044 51.1368 92.376 51.0446C92.8475 50.9524 93.3358 51.0025 93.7789 51.1884C94.2219 51.3743 94.5999 51.6878 94.8649 52.089C95.1298 52.4902 95.2699 52.9611 95.2672 53.4421C95.2636 54.0839 95.0064 54.6982 94.5518 55.1508C94.0971 55.6034 93.4821 55.8574 92.8409 55.8574ZM78.8057 66.1041C78.3238 66.1054 77.8524 65.9634 77.4512 65.6961C77.05 65.4288 76.7372 65.0484 76.5522 64.6029C76.3673 64.1574 76.3186 63.667 76.4124 63.1938C76.5062 62.7206 76.7382 62.2859 77.079 61.9449C77.4198 61.6038 77.8541 61.3718 78.3268 61.2781C78.7996 61.1844 79.2894 61.2333 79.7343 61.4187C80.1792 61.604 80.5592 61.9174 80.826 62.3191C81.0928 62.7208 81.2344 63.1928 81.233 63.6752C81.2321 64.3194 80.9761 64.9368 80.5211 65.3922C80.066 65.8475 79.4491 66.1036 78.8057 66.1041ZM64.7704 60.9808C64.2906 60.9808 63.8215 60.8383 63.4225 60.5714C63.0235 60.3045 62.7125 59.9252 62.5289 59.4814C62.3452 59.0375 62.2972 58.5492 62.3908 58.078C62.4844 57.6068 62.7155 57.1741 63.0548 56.8344C63.3941 56.4947 63.8265 56.2634 64.2971 56.1696C64.7678 56.0759 65.2556 56.124 65.6989 56.3079C66.1423 56.4917 66.5212 56.803 66.7878 57.2024C67.0544 57.6019 67.1967 58.0715 67.1967 58.5519C67.1961 59.1959 66.9403 59.8134 66.4854 60.2687C66.0306 60.7241 65.4138 60.9802 64.7704 60.9808ZM50.7394 71.2192C50.2599 71.2189 49.7912 71.0765 49.3925 70.8098C48.9938 70.5431 48.683 70.1641 48.4993 69.7207C48.3156 69.2773 48.2673 68.7893 48.3604 68.3184C48.4535 67.8476 48.684 67.4149 49.0226 67.075C49.3612 66.7351 49.7929 66.5033 50.263 66.4088C50.7331 66.3144 51.2207 66.3615 51.6641 66.5443C52.1075 66.727 52.4869 67.0372 52.7543 67.4356C53.0217 67.8341 53.1652 68.3029 53.1667 68.7829C53.1659 69.4277 52.9107 70.046 52.4566 70.5032C52.0026 70.9605 51.3865 71.2197 50.7425 71.2244L50.7394 71.2192ZM92.8409 48.6888C91.5831 48.6905 90.3775 49.1922 89.4891 50.0835C88.6007 50.9748 88.1022 52.1829 88.1033 53.4421C88.1027 54.0451 88.2195 54.6424 88.4469 55.2008L81.8377 60.0199C81.3306 59.5945 80.7398 59.2806 80.1037 59.0986C79.4676 58.9166 78.8003 58.8706 78.1453 58.9634C77.4902 59.0563 76.862 59.286 76.3014 59.6377C75.7408 59.9894 75.2603 60.4552 74.8911 61.0048L69.4872 59.0182C69.5018 58.8729 69.5112 58.7045 69.5112 58.5445C69.4927 57.2985 68.9853 56.1097 68.0985 55.235C67.2117 54.3604 66.0169 53.8701 64.772 53.8701C63.5272 53.8701 62.3323 54.3604 61.4455 55.235C60.5588 56.1097 60.0513 57.2985 60.0328 58.5445C60.0324 59.154 60.1505 59.7578 60.3806 60.322L53.7693 65.1412C52.9409 64.4507 51.9021 64.0636 50.8243 64.0438C49.7465 64.0239 48.6942 64.3726 47.841 65.0322C46.9879 65.6917 46.3848 66.6228 46.1314 67.6717C45.878 68.7206 45.9894 69.8246 46.4473 70.8016C46.9051 71.7786 47.682 72.5701 48.6497 73.0455C49.6174 73.5209 50.7181 73.6518 51.7702 73.4166C52.8222 73.1813 53.7627 72.5941 54.4364 71.7517C55.1101 70.9093 55.4768 69.8621 55.4759 68.7829C55.4765 68.1793 55.3587 67.5814 55.1292 67.0232L61.7405 62.2041C62.5934 62.9094 63.6631 63.299 64.7694 63.3072C65.5454 63.3048 66.3091 63.1121 66.9935 62.7459C67.6779 62.3797 68.2623 61.8512 68.6955 61.2066L74.0921 63.1755C74.0754 63.3469 74.0681 63.5048 74.0681 63.6752C74.0683 64.3747 74.2231 65.0654 74.5213 65.6979C74.8195 66.3305 75.2537 66.8891 75.793 67.3339C76.3322 67.7787 76.963 68.0986 77.6402 68.2707C78.3174 68.4428 79.0242 68.4628 79.71 68.3292C80.3959 68.1957 81.0437 67.912 81.6071 67.4984C82.1706 67.0848 82.6356 66.5516 82.9691 65.9369C83.3025 65.3223 83.4959 64.6414 83.5356 63.9431C83.5753 63.2448 83.4602 62.5463 83.1986 61.8977L89.8068 57.0797C90.3918 57.5671 91.0854 57.9064 91.8291 58.0687C92.5727 58.231 93.3445 58.2116 94.0791 58.0121C94.8136 57.8126 95.4894 57.4389 96.0492 56.9226C96.6089 56.4064 97.0363 55.7627 97.295 55.0461C97.5537 54.3295 97.6361 53.5611 97.5354 52.8059C97.4347 52.0506 97.1537 51.3308 96.7162 50.7073C96.2788 50.0837 95.6978 49.5749 95.0223 49.2237C94.3468 48.8725 93.5968 48.6894 92.8357 48.6899L92.8409 48.6888ZM69.8308 26.0529V29.519H99.2998V26.0529H69.8308ZM68.6735 31.8298C68.5216 31.8307 68.371 31.8015 68.2304 31.7438C68.0898 31.6862 67.9621 31.6011 67.8546 31.4937C67.747 31.3862 67.6619 31.2585 67.604 31.1179C67.5461 30.9772 67.5166 30.8265 67.5173 30.6744V24.8975C67.5165 24.7453 67.5458 24.5945 67.6037 24.4538C67.6615 24.313 67.7466 24.1852 67.8542 24.0776C67.9617 23.97 68.0895 23.8849 68.2302 23.8271C68.3708 23.7694 68.5215 23.7401 68.6735 23.7411H100.456C100.608 23.7401 100.759 23.7694 100.899 23.8271C101.04 23.8849 101.168 23.97 101.275 24.0776C101.383 24.1852 101.468 24.313 101.526 24.4538C101.584 24.5945 101.613 24.7453 101.612 24.8975V30.6744C101.614 30.8268 101.585 30.9779 101.528 31.119C101.47 31.2601 101.385 31.3882 101.277 31.4959C101.169 31.6035 101.041 31.6885 100.9 31.7459C100.759 31.8032 100.608 31.8317 100.456 31.8298H68.6735ZM47.4818 26.079C47.1431 26.0799 46.8122 26.1813 46.5311 26.3704C46.25 26.5595 46.0312 26.8279 45.9025 27.1415C45.7738 27.4552 45.7409 27.8 45.808 28.1324C45.8752 28.4647 46.0393 28.7696 46.2796 29.0086C46.5199 29.2476 46.8256 29.4098 47.158 29.4747C47.4904 29.5397 47.8346 29.5045 48.1471 29.3735C48.4595 29.2426 48.7261 29.0218 48.9131 28.7391C49.1002 28.4564 49.1992 28.1245 49.1978 27.7854C49.1947 27.3322 49.0129 26.8985 48.6919 26.5789C48.3708 26.2592 47.9366 26.0796 47.4838 26.079H47.4818ZM47.4818 31.8162C46.6872 31.8149 45.9108 31.578 45.2507 31.1353C44.5906 30.6926 44.0763 30.064 43.7728 29.3289C43.4693 28.5938 43.3902 27.7851 43.5455 27.0051C43.7008 26.225 44.0836 25.5084 44.6454 24.946C45.2072 24.3835 45.923 24.0004 46.7022 23.8449C47.4814 23.6894 48.2892 23.7686 49.0235 24.0724C49.7579 24.3762 50.3858 24.8911 50.828 25.5519C51.2702 26.2128 51.5068 26.99 51.5081 27.7854C51.5085 28.3149 51.4046 28.8392 51.2024 29.3284C51.0002 29.8176 50.7037 30.2622 50.3297 30.6365C49.9558 31.0109 49.5117 31.3078 49.0231 31.5102C48.5344 31.7126 48.0106 31.8166 47.4818 31.8162ZM35.1521 26.079C34.8133 26.0795 34.4822 26.1805 34.2009 26.3694C33.9195 26.5583 33.7004 26.8265 33.5714 27.1401C33.4423 27.4537 33.4092 27.7986 33.476 28.1311C33.5429 28.4636 33.7068 28.7687 33.9471 29.0079C34.1873 29.247 34.493 29.4095 34.8255 29.4746C35.158 29.5397 35.5023 29.5046 35.8148 29.3737C36.1274 29.2428 36.3941 29.022 36.5812 28.7393C36.7684 28.4566 36.8675 28.1246 36.866 27.7854C36.8633 27.3321 36.6815 26.8983 36.3604 26.5786C36.0393 26.2589 35.6049 26.0793 35.1521 26.079ZM35.1521 31.8162C34.3574 31.8154 33.5809 31.5788 32.9205 31.1363C32.26 30.6939 31.7454 30.0654 31.4416 29.3304C31.1378 28.5953 31.0584 27.7866 31.2135 27.0063C31.3686 26.2261 31.7512 25.5094 32.3129 24.9467C32.8747 24.3841 33.5904 24.0007 34.3697 23.845C35.149 23.6894 35.9569 23.7684 36.6913 24.0722C37.4257 24.376 38.0538 24.8908 38.4961 25.5517C38.9384 26.2126 39.1751 26.9899 39.1763 27.7854C39.1769 28.3147 39.0732 28.839 38.8712 29.3281C38.6691 29.8173 38.3728 30.2617 37.999 30.6361C37.6252 31.0105 37.1814 31.3074 36.6929 31.5099C36.2044 31.7124 35.6808 31.8165 35.1521 31.8162ZM22.8214 26.079C22.4826 26.0795 22.1515 26.1805 21.8701 26.3694C21.5888 26.5583 21.3697 26.8265 21.2406 27.1401C21.1116 27.4537 21.0784 27.7986 21.1453 28.1311C21.2122 28.4636 21.3761 28.7687 21.6164 29.0079C21.8566 29.247 22.1623 29.4095 22.4948 29.4746C22.8273 29.5397 23.1716 29.5046 23.4841 29.3737C23.7967 29.2428 24.0634 29.022 24.2505 28.7393C24.4376 28.4566 24.5368 28.1246 24.5353 27.7854C24.532 27.3323 24.3501 26.8987 24.0291 26.5792C23.7081 26.2596 23.2741 26.0799 22.8214 26.079ZM22.8214 31.8162C22.0268 31.8152 21.2503 31.5784 20.59 31.1358C19.9298 30.6933 19.4153 30.0647 19.1117 29.3296C18.808 28.5945 18.7288 27.7858 18.884 27.0057C19.0392 26.2255 19.4218 25.5089 19.9836 24.9464C20.5454 24.3838 21.2611 24.0005 22.0404 23.845C22.8197 23.6894 23.6275 23.7685 24.3619 24.0723C25.0963 24.3761 25.7242 24.8909 26.1665 25.5518C26.6087 26.2127 26.8454 26.99 26.8467 27.7854C26.8469 28.3147 26.7431 28.8388 26.5409 29.3278C26.3388 29.8168 26.0424 30.2612 25.6687 30.6355C25.295 31.0098 24.8513 31.3067 24.3629 31.5093C23.8745 31.7119 23.35 31.8162 22.8214 31.8162ZM18.8713 20H103.129C103.769 20.0004 104.403 20.1271 104.994 20.3727C105.585 20.6184 106.123 20.9783 106.575 21.4318C107.027 21.8854 107.386 22.4237 107.63 23.016C107.875 23.6083 108.001 24.243 108 24.8839V35.6106L14 35.3879V24.8839C13.9993 24.243 14.1248 23.6082 14.3693 23.0158C14.6137 22.4234 14.9724 21.8851 15.4248 21.4315C15.8772 20.978 16.4144 20.6181 17.0058 20.3725C17.5971 20.1268 18.231 20.0003 18.8713 20ZM103.129 92.5554C104.419 92.5532 105.656 92.0396 106.569 91.1269C107.481 90.2142 107.996 88.9767 108 87.6851V37.9214L14 37.6987V87.6851C14.0039 88.9767 14.5185 90.2142 15.4314 91.1269C16.3443 92.0396 17.5811 92.5532 18.8713 92.5554H45.0022V78.9398C45.0011 78.7871 45.0302 78.6358 45.0879 78.4944C45.1455 78.3531 45.2305 78.2246 45.338 78.1163C45.4455 78.008 45.5733 77.9221 45.7141 77.8635C45.8549 77.8049 46.006 77.7749 46.1584 77.775H55.3172C55.47 77.775 55.6213 77.8053 55.7623 77.8642C55.9033 77.9231 56.0313 78.0094 56.1388 78.1181C56.2463 78.2268 56.3313 78.3557 56.3887 78.4975C56.4461 78.6392 56.4749 78.791 56.4734 78.944V92.5554H59.0364V68.6982C59.0357 68.5461 59.0652 68.3952 59.1232 68.2546C59.1811 68.1139 59.2664 67.9861 59.374 67.8786C59.4817 67.7711 59.6095 67.6861 59.7502 67.6285C59.8909 67.5709 60.0417 67.5418 60.1937 67.5429H69.3556C69.5069 67.5429 69.6567 67.5728 69.7964 67.6309C69.9362 67.689 70.063 67.7742 70.1698 67.8816C70.2765 67.9889 70.3611 68.1164 70.4185 68.2565C70.4759 68.3966 70.5051 68.5468 70.5044 68.6982V92.5554H73.0675V73.8018C73.0703 73.4958 73.1936 73.2032 73.4107 72.9878C73.6279 72.7724 73.9212 72.6516 74.2268 72.6516H83.3866C83.6916 72.6527 83.9838 72.774 84.2 72.9893C84.4162 73.2046 84.539 73.4965 84.5418 73.8018V92.5554H87.1111V63.578C87.1111 63.4265 87.141 63.2765 87.1991 63.1366C87.2571 62.9968 87.3422 62.8697 87.4495 62.7629C87.5567 62.656 87.684 62.5714 87.8239 62.5139C87.9639 62.4564 88.1139 62.4272 88.2652 62.4279H97.425C97.5766 62.4268 97.7269 62.4557 97.8672 62.513C98.0076 62.5703 98.1352 62.6548 98.2428 62.7618C98.3504 62.8687 98.4357 62.9958 98.494 63.1359C98.5522 63.276 98.5822 63.4263 98.5822 63.578V92.5554H103.129ZM89.4172 97.6788V64.7334H96.2636V97.6767H102.247C102.555 97.6767 102.85 97.7991 103.068 98.0169C103.285 98.2348 103.408 98.5303 103.408 98.8383C103.408 99.1464 103.285 99.4419 103.068 99.6598C102.85 99.8776 102.555 100 102.247 100H41.3321C41.0243 100 40.7292 99.8776 40.5116 99.6598C40.2939 99.4419 40.1717 99.1464 40.1717 98.8383C40.1717 98.5303 40.2939 98.2348 40.5116 98.0169C40.7292 97.7991 41.0243 97.6767 41.3321 97.6767L89.4172 97.6788ZM54.1631 97.6788H47.3178V80.0952H54.1672V97.6767L54.1631 97.6788ZM68.1962 97.6788H61.3488V69.8536H68.1962V97.6767V97.6788ZM82.2304 97.6788H75.3841V74.9613H82.2304V97.6767V97.6788ZM84.5418 94.8683V97.6788H87.1111V94.8662L84.5418 94.8683ZM70.5076 94.8683V97.6788H73.0706V94.8662L70.5076 94.8683ZM56.4734 94.8683V97.6788H59.0364V94.8662L56.4734 94.8683Z" fill="#012228"></path></svg> 