<?xml version="1.0" encoding="UTF-8"?> <svg xmlns="http://www.w3.org/2000/svg" width="1920" height="1158" viewBox="0 0 1920 1158" fill="none"><path d="M0 0H1920V443.506C1920 443.506 1322.88 508.392 960 642.736C331.2 875.53 0 1158 0 1158V0Z" fill="url(#paint0_linear_85_31)"></path><path d="M0 0H1920V443.506C1920 443.506 1322.88 508.392 960 642.736C331.2 875.53 0 1158 0 1158V0Z" fill="url(#paint1_radial_85_31)"></path><path d="M0 0H1920V443.506C1920 443.506 1322.88 508.392 960 642.736C331.2 875.53 0 1158 0 1158V0Z" fill="url(#paint2_radial_85_31)" fill-opacity="0.3"></path><defs><linearGradient id="paint0_linear_85_31" x1="988.8" y1="-290.191" x2="959.992" y2="1102.79" gradientUnits="userSpaceOnUse"><stop stop-color="#949588"></stop><stop offset="0.610703" stop-color="#88887C"></stop><stop offset="0.664621" stop-color="#747160"></stop><stop offset="1" stop-color="#747160"></stop></linearGradient><radialGradient id="paint1_radial_85_31" cx="0" cy="0" r="1" gradientUnits="userSpaceOnUse" gradientTransform="translate(171.5 1.21206e-05) rotate(75.2355) scale(906.429 970.181)"><stop stop-color="#B8B8AD"></stop><stop offset="0.724584" stop-color="#98988C" stop-opacity="0"></stop></radialGradient><radialGradient id="paint2_radial_85_31" cx="0" cy="0" r="1" gradientUnits="userSpaceOnUse" gradientTransform="translate(246.5 1071.5) rotate(-90) scale(492.5 492.5)"><stop stop-color="#AF9377"></stop><stop offset="0.939869" stop-color="#74583C" stop-opacity="0"></stop></radialGradient></defs></svg> 